<svg width="96" height="119" viewBox="0 0 96 119" fill="none" xmlns="http://www.w3.org/2000/svg">
<g clip-path="url(#clip0_47_205)">
<path d="M34.2082 38.2091C33.4924 38.0894 32.7766 37.9709 32.0607 37.8487C31.8213 37.8079 31.5831 37.7608 31.3436 37.7149C31.1844 37.6844 31.0265 37.6334 30.8673 37.6232C30.3896 37.5939 29.9094 37.5723 29.4305 37.5608C28.9834 37.5493 28.5363 37.5659 28.0905 37.5506C27.5912 37.5341 27.0919 37.4704 26.5926 37.4716C26.1086 37.4716 25.6259 37.5341 25.1419 37.5608C24.5152 37.5952 23.886 37.6143 23.2593 37.6512C22.8505 37.6754 22.8071 37.4908 22.9651 37.1736C22.9791 37.1443 23.0122 37.1188 23.0148 37.0908C23.0339 36.8959 23.0479 36.701 23.0632 36.5074C22.867 36.5125 22.6301 36.4476 22.4836 36.5355C21.9423 36.8577 21.4073 37.2003 20.9169 37.5939C20.5157 37.9162 20.1756 38.2295 19.5834 38.1314C19.2726 38.0805 18.9248 38.2792 18.5899 38.3378C17.9581 38.4486 17.3212 38.5263 16.6907 38.6422C16.3315 38.7084 15.9851 38.8396 15.6259 38.9097C14.4681 39.1364 13.3077 39.3478 12.1486 39.5631C12.1206 39.5682 12.0875 39.5478 12.0162 39.5287C12.1372 39.2026 12.2875 38.8855 12.3626 38.553C12.4059 38.3594 12.327 38.1378 12.3028 37.9289C12.1041 37.9862 11.8519 37.9875 11.7156 38.1123C11.1195 38.66 10.5858 39.2803 9.96676 39.8013C9.67635 40.0458 9.25984 40.1898 8.87773 40.2598C8.27908 40.3694 7.68807 40.4178 7.1149 40.698C6.74934 40.8763 6.25386 40.7655 5.84245 40.8763C4.5165 41.2342 3.19693 41.6227 1.88372 42.0277C1.49014 42.1487 1.12968 42.3767 0.743739 42.5296C0.612546 42.5818 0.44951 42.5525 0.301758 42.5614C0.322137 42.429 0.306853 42.2761 0.369265 42.1679C0.81252 41.382 1.21884 40.5681 1.73597 39.8319C2.49765 38.7466 3.21476 37.6181 4.22737 36.7252C4.77507 36.2425 5.23743 35.6591 5.80424 35.2031C6.72641 34.4593 7.70208 33.7817 8.6561 33.0773C9.04713 32.7882 9.40505 32.4226 9.83939 32.2265C11.0813 31.6673 12.3461 31.1553 13.6198 30.6674C14.2847 30.4127 14.975 30.2076 15.6705 30.0599C16.2831 29.9287 16.9187 29.9083 17.5441 29.8382C17.7199 29.8179 17.897 29.8013 18.0715 29.7694C18.2472 29.7376 18.4204 29.651 18.5937 29.6535C20.3463 29.6828 22.1117 29.6102 23.8491 29.7975C25.3954 29.9643 26.9238 30.3706 28.4345 30.768C29.7018 31.1018 30.9488 31.5336 32.1754 31.9997C33.1128 32.3564 34.0019 32.8366 34.9151 33.2594C35.0756 33.3333 35.2412 33.4225 35.4119 33.4467C35.7813 33.4989 35.9252 33.3015 35.8029 32.9448C35.2807 31.4227 34.7012 29.9159 34.2554 28.3722C33.9509 27.3163 33.8172 26.2094 33.6338 25.1216C33.1803 22.4417 33.2631 19.7567 33.4937 17.0603C33.6414 15.3344 34.0274 13.6645 34.6617 12.08C35.1393 10.8865 35.8322 9.76565 36.5366 8.68171C37.1594 7.7226 37.9084 6.84119 38.6472 5.96359C39.0114 5.53053 39.4369 5.12548 39.9043 4.80833C41.1398 3.97149 42.3983 3.16395 43.6784 2.39845C44.5088 1.90169 45.3813 1.46608 46.2627 1.06613C46.9505 0.754071 47.6778 0.529896 48.3937 0.282794C48.6382 0.198728 48.7847 0.310816 48.7363 0.579571C48.693 0.820304 48.6446 1.06613 48.5491 1.28903C48.1529 2.21121 47.7262 3.12065 47.3327 4.04409C46.7811 5.33819 46.2513 6.64121 45.7099 7.94041C45.5354 8.36074 45.3839 8.79508 45.1699 9.19502C45.0629 9.39627 44.868 9.61408 44.6629 9.68923C43.8898 9.97199 43.4873 10.6025 43.0886 11.3323C43.6567 11.2877 44.2261 11.2444 44.8909 11.1935C44.6629 11.9335 44.4528 12.6366 44.2286 13.3346C44.1089 13.7053 43.9662 14.0696 43.8274 14.4338C43.7076 14.7472 43.579 15.0567 43.4542 15.3675C43.3395 15.6553 43.2071 15.9368 43.1128 16.2311C42.9345 16.7851 42.788 17.3507 42.6084 17.9047C42.2238 19.0969 41.8391 20.2891 41.4239 21.4699C41.3322 21.731 41.1373 21.9692 40.9488 22.1806C40.5717 22.6048 40.1591 22.9971 39.7757 23.4161C39.7031 23.4951 39.7005 23.639 39.6661 23.7524C39.7999 23.7804 39.9374 23.8403 40.0674 23.8275C40.3387 23.8033 40.6074 23.6925 40.8749 23.7027C41.3207 23.7193 41.4557 23.9345 41.392 24.3803C41.2086 25.6706 40.9602 26.9558 40.8711 28.2524C40.8061 29.1988 40.95 30.1605 41.0035 31.1158C41.0252 31.5068 41.0201 31.9029 41.0927 32.2838C41.1322 32.4914 41.3118 32.671 41.4277 32.8646C41.592 32.7041 41.8225 32.5729 41.9079 32.378C42.3817 31.2954 42.7944 30.1847 43.281 29.1071C43.5395 28.5365 43.9051 28.0155 44.2222 27.4717C44.5878 26.845 44.9241 26.1992 45.3265 25.598C45.8462 24.8198 46.3583 24.0224 46.9786 23.3295C48.1033 22.0736 49.2636 20.8419 50.494 19.6905C51.1131 19.1097 51.9104 18.7148 52.639 18.2563C53.2707 17.8589 53.8936 17.4309 54.5699 17.1265C55.6424 16.6425 56.748 16.2234 57.8549 15.8235C59.3604 15.2796 60.9296 14.9714 62.5218 14.8924C63.7446 14.8312 64.9763 14.6236 66.2054 14.9459C66.6155 15.0529 67.0741 14.9586 67.4995 15.0274C68.8802 15.2503 70.2749 15.4337 71.6289 15.7712C72.9154 16.0922 74.1585 16.5877 75.4208 17.0042C75.9787 17.1876 76.5417 17.3558 77.0944 17.5506C77.3912 17.6551 77.6727 17.8054 78.0153 17.9595C77.4167 18.2741 76.9021 18.525 76.4066 18.8103C74.9992 19.6204 73.5217 20.2777 72.0021 20.8432C71.9715 20.8547 71.9397 20.8661 71.9142 20.8852C70.6571 21.7934 69.191 22.2711 67.8001 22.9079C67.4218 23.0811 67.0626 23.3053 66.7187 23.5422C66.3824 23.7728 66.143 23.6747 65.8437 23.4556C65.3393 23.085 64.8489 22.6583 64.1713 22.6213C63.7662 22.5997 63.3612 22.5576 62.9561 22.5513C62.8695 22.55 62.7141 22.6583 62.709 22.7245C62.6976 22.871 62.7179 23.0582 62.8046 23.1665C63.0669 23.4964 63.3561 23.8084 63.6567 24.1052C63.9152 24.3612 63.8656 24.5854 63.5943 24.7433C62.9523 25.1191 62.2912 25.4643 61.6391 25.8247C60.9016 26.2311 60.168 26.6425 59.4305 27.0475C58.9605 27.3061 58.4828 27.5481 58.0192 27.8168C57.3912 28.1811 56.7862 28.5849 56.1468 28.925C55.9277 29.0409 55.5622 29.139 55.3864 29.0358C54.5381 28.5365 53.7089 28.7925 52.8797 29.0129C52.5256 29.1071 52.1932 29.2931 51.8633 29.4638C51.7678 29.5134 51.6557 29.6625 51.6671 29.7478C51.6811 29.8446 51.8149 29.9618 51.9206 29.9987C52.3499 30.1465 52.7918 30.2611 53.2236 30.4012C53.3523 30.442 53.4669 30.5235 53.5879 30.5872C53.5026 30.7184 53.4478 30.8954 53.3281 30.9706C52.9154 31.2291 52.453 31.4138 52.0607 31.6966C50.68 32.6901 49.1413 33.476 47.9937 34.779C47.6167 35.207 47.2091 35.6095 46.8601 36.0578C46.7467 36.2043 46.7786 36.4616 46.7442 36.6692C46.9416 36.6297 47.1582 36.6323 47.3314 36.5457C48.3007 36.0591 49.2534 35.5394 50.2227 35.0528C50.6724 34.8274 51.1666 34.6873 51.6022 34.4402C52.5282 33.9141 53.5153 33.5944 54.5508 33.3741C55.3864 33.1958 56.2016 32.9194 57.0346 32.7258C57.5925 32.5958 58.1682 32.5398 58.7337 32.4404C58.9414 32.4035 59.1401 32.308 59.3464 32.2863C59.9234 32.229 60.5029 32.2023 61.0812 32.1526C61.257 32.1373 61.4289 32.0876 61.6022 32.052C61.792 32.0125 62.0098 31.8902 62.1664 31.9462C62.9701 32.2303 63.7764 31.959 64.5763 32.0048C65.8207 32.0774 67.0639 32.1844 68.3032 32.3131C68.5987 32.3436 68.87 32.5525 69.1668 32.6162C69.7349 32.7372 70.3259 32.7678 70.8851 32.9181C71.5869 33.1066 72.2696 33.3741 72.9561 33.6161C73.2618 33.7244 73.5535 33.881 73.8643 33.9689C75.2246 34.3523 76.3914 35.1586 77.6689 35.7037C79.0509 36.2947 80.2635 37.1303 81.4646 37.976C82.7778 38.9008 84.0006 39.9592 85.2284 40.9986C85.9443 41.6049 86.5926 42.2876 87.2689 42.9397C87.3594 43.0276 87.4307 43.1346 87.553 43.2836C87.0983 43.583 86.6168 43.4518 86.1748 43.5002C85.366 43.5893 84.5534 43.6428 83.7407 43.7027C83.5484 43.7167 83.3535 43.6874 83.1599 43.6925C82.8568 43.7001 82.5549 43.7218 82.2517 43.7333C81.5563 43.76 80.8583 43.7715 80.1641 43.8097C78.4943 43.9027 76.8231 43.9931 75.1558 44.1192C74.682 44.1549 74.4209 43.9689 74.1394 43.6186C73.4885 42.8073 72.7854 42.0392 72.1002 41.2559C72.048 41.196 71.9779 41.1361 71.9053 41.1119C71.7346 41.0572 71.5563 41.0241 71.3805 40.982C71.3665 41.168 71.2977 41.3692 71.3474 41.5361C71.5843 42.3271 71.8556 43.1091 72.1129 43.895C72.2046 44.174 72.1015 44.295 71.8072 44.2784C70.6214 44.216 69.4356 44.1485 68.2497 44.1065C67.5212 44.081 66.79 44.1217 66.0627 44.0899C65.3711 44.0593 64.6833 43.974 63.9929 43.9103C63.9445 43.9065 63.8936 43.8759 63.849 43.8861C62.7663 44.1319 62.4899 43.3117 62.0862 42.6022C61.7601 42.0277 61.35 41.4992 60.9487 40.9718C60.8621 40.8572 60.6507 40.8381 60.4966 40.7744C60.4405 40.9183 60.3437 41.061 60.3374 41.2075C60.3157 41.7603 60.3183 42.3131 60.3221 42.8659C60.3246 43.1588 60.2571 43.2696 59.917 43.1881C58.7197 42.899 57.4919 42.7206 56.3175 42.3653C54.9215 41.9424 53.4847 42.0469 52.0709 41.8889C51.3742 41.8112 50.652 41.9692 49.9412 42.0099C49.7158 42.0227 49.4878 41.9921 49.2624 42.0048C49.0968 42.0137 48.9337 42.0609 48.7707 42.0914C48.8293 42.2621 48.842 42.4761 48.9541 42.5958C49.4458 43.1181 49.9782 43.5995 50.4737 44.1179C51.3385 45.0235 52.169 45.9623 53.0453 46.8564C54.2502 48.0881 55.4947 49.2816 56.7009 50.5133C57.2473 51.0712 57.739 51.6826 58.2599 52.2646C58.586 52.6289 58.935 52.9716 59.2509 53.3435C61.1003 55.5279 62.9638 57.7009 64.7801 59.9133C65.7685 61.117 66.6588 62.4009 67.6205 63.6275C68.3516 64.5612 69.1553 65.4387 69.8712 66.3838C70.8647 67.6945 71.8365 69.0243 72.7663 70.3821C74.2273 72.5168 75.6844 74.6554 77.0728 76.8386C78.67 79.3516 80.1934 81.9105 81.7384 84.4567C82.1167 85.0808 82.4441 85.7355 82.8147 86.3647C83.5548 87.6219 84.333 88.8561 85.0476 90.126C85.8284 91.5131 86.59 92.9142 87.297 94.3395C88.1274 96.0119 88.9018 97.7136 89.6801 99.4127C90.2023 100.551 90.7042 101.699 91.1882 102.854C92.0365 104.876 92.858 106.907 93.7038 108.929C93.9547 109.529 94.2719 110.099 94.5228 110.699C94.7966 111.356 95.0488 112.025 95.2603 112.704C95.2985 112.825 95.1278 113.115 94.9902 113.17C93.9789 113.573 92.9523 113.941 91.9269 114.309C91.5932 114.43 91.2429 114.508 90.9092 114.63C89.8801 115.007 88.8585 115.408 87.8268 115.779C86.641 116.205 85.445 116.603 84.2579 117.026C83.3178 117.361 82.3842 117.712 81.448 118.057C80.8099 118.292 80.1769 118.54 79.5298 118.747C79.4419 118.775 79.1999 118.609 79.1757 118.501C78.9757 117.596 78.8293 116.679 78.6306 115.774C78.2204 113.915 77.795 112.061 77.3619 110.208C77.1632 109.357 76.9454 108.511 76.7187 107.666C76.3213 106.19 75.9112 104.719 75.5048 103.245C75.1558 101.982 74.8107 100.716 74.4515 99.4548C74.3279 99.0204 74.1662 98.5975 74.0235 98.1696C73.5599 96.7647 73.1268 95.3496 72.625 93.9586C72.1881 92.7499 71.6633 91.573 71.1984 90.3731C70.8761 89.5414 70.6176 88.6854 70.2813 87.8601C69.945 87.0334 69.5362 86.2361 69.1783 85.4183C68.5771 84.0453 68.0128 82.6544 67.39 81.2915C66.804 80.0063 66.1583 78.7479 65.5494 77.4729C65.2488 76.8424 65.0017 76.1851 64.682 75.5648C64.226 74.6758 63.7102 73.816 63.2504 72.9282C63.0058 72.457 62.853 71.9398 62.611 71.466C62.1308 70.526 61.6315 69.5962 61.1169 68.6753C60.4023 67.3965 59.6738 66.1253 58.9375 64.8592C58.3656 63.8746 57.7848 62.8939 57.1849 61.9246C56.329 60.5426 55.4896 59.1491 54.5776 57.8041C53.3204 55.947 52.0174 54.1192 50.7029 52.3029C50.238 51.6609 49.6661 51.0992 49.1681 50.4802C48.6178 49.7962 48.1071 49.0803 47.5581 48.3951C47.1607 47.8996 46.7149 47.4436 46.3137 46.952C45.8615 46.3966 45.4514 45.8056 44.9877 45.2605C44.8616 45.1127 44.6094 45.0732 44.4158 44.9841C44.3407 45.1649 44.1942 45.3483 44.2031 45.5241C44.249 46.4463 44.3127 47.3697 44.4133 48.2881C44.5572 49.6077 44.6757 50.9362 44.9177 52.2392C45.1673 53.5919 45.5444 54.9204 45.8832 56.2552C45.9469 56.5061 45.9239 56.6462 45.6475 56.645C45.3558 56.645 45.0591 56.5787 44.7738 56.617C44.5801 56.6424 44.4044 56.7965 44.2197 56.8934C44.3203 57.0806 44.3764 57.3672 44.5305 57.4372C45.0234 57.6614 45.5571 57.7939 46.064 57.99C46.2029 58.0435 46.3761 58.1785 46.4079 58.3072C46.5646 58.9326 46.6741 59.5694 46.8092 60.2012C47.0066 61.1208 47.2193 62.0379 47.4116 62.9588C47.4651 63.2123 47.4447 63.4823 47.4995 63.7345C47.7199 64.7611 47.9415 65.789 48.1962 66.808C48.2739 67.1188 48.1975 67.2079 47.9071 67.1697C47.3874 67.1022 46.8703 67.0233 46.3493 66.971C46.2691 66.9634 46.101 67.0793 46.1048 67.129C46.1163 67.292 46.1366 67.5264 46.2449 67.5977C46.7175 67.911 47.1989 68.2307 47.7199 68.446C48.2395 68.66 48.5083 68.995 48.5694 69.5299C48.7707 71.3093 48.9618 73.0913 49.1745 74.8694C49.3923 76.6908 49.6305 78.5097 49.8623 80.3298C49.875 80.4266 49.9119 80.5209 49.9183 80.6177C49.9285 80.7833 49.9221 80.9501 49.9221 81.1157C49.7234 81.0979 49.4814 81.1476 49.3311 81.052C48.7032 80.6521 48.1058 80.2037 47.4919 79.7821C46.9047 79.3796 46.2487 79.0536 45.7354 78.5734C44.933 77.8231 44.2108 76.9863 43.4847 76.1584C43.067 75.682 42.6606 75.1827 42.3384 74.6401C41.6429 73.4683 40.9653 72.2825 40.3578 71.0622C39.8954 70.1337 39.4789 69.1682 39.177 68.1785C38.8127 66.9838 38.5376 65.7534 38.3211 64.5217C38.0536 62.9983 37.8154 61.4635 37.7008 59.9235C37.604 58.6205 37.6473 57.2984 37.7313 55.9916C37.8027 54.8758 38.0205 53.7702 38.1721 52.6595C38.2867 51.8201 38.3618 50.9731 38.5223 50.1426C38.7567 48.9339 39.0611 47.7378 39.3082 46.5316C39.3426 46.3648 39.2178 46.1648 39.1668 45.9801C38.9949 46.1202 38.7401 46.2247 38.665 46.4043C38.1364 47.678 37.646 48.967 37.1391 50.2496C36.9251 50.791 36.6729 51.3195 36.4856 51.8711C35.9239 53.518 35.3724 55.17 34.8438 56.8284C34.7266 57.1965 34.7305 57.6015 34.6566 57.9862C34.6349 58.1008 34.5611 58.2651 34.4757 58.2919C34.3891 58.3186 34.2337 58.2282 34.1522 58.1454C33.821 57.8079 33.5268 57.4334 33.1778 57.1175C33.0491 57.0016 32.8084 57.0118 32.6174 56.9634C32.6097 57.1608 32.5244 57.4003 32.6059 57.5468C32.9778 58.2117 33.3803 58.8612 33.8083 59.493C34.0325 59.8229 34.1828 60.1464 34.0707 60.54C33.8898 61.1743 33.6911 61.8023 33.5064 62.4353C33.4376 62.6697 33.3778 62.9079 33.3306 63.1473C32.9511 65.0668 32.5753 66.9876 32.1983 68.9084C32.1524 69.1415 32.1079 69.3758 32.0442 69.7108C31.4888 69.2803 30.9972 68.9173 30.5284 68.5288C30.2941 68.3339 30.0457 68.0792 29.7744 68.3237C29.6496 68.4358 29.6674 68.7886 29.7247 69.0052C29.9731 69.9299 30.3731 70.7769 31.122 71.4151C31.6366 71.8532 31.4634 72.4328 31.429 72.9703C31.2889 75.1623 31.1182 77.3519 30.9832 79.5439C30.9182 80.6011 30.9118 81.6609 30.866 82.7193C30.8609 82.8327 30.7564 83.0416 30.7246 83.0365C30.5616 83.0123 30.3654 82.9728 30.2584 82.862C29.5439 82.1258 28.7962 81.4125 28.1593 80.6126C27.1569 79.3542 26.1825 78.0651 25.296 76.7239C24.784 75.9482 24.4184 75.063 24.072 74.1943C23.4937 72.7435 22.8925 71.2839 22.7829 69.7032C22.5932 66.9774 22.3779 64.244 23.1332 61.5564C23.4262 60.5133 23.6554 59.4459 24.0414 58.4384C24.398 57.5073 24.8948 56.6233 25.3852 55.7495C26.0233 54.6083 26.6729 53.4696 27.3976 52.3831C27.9988 51.4813 28.6968 50.6407 29.3846 49.8C30.1769 48.832 30.9959 47.8843 31.8238 46.9456C32.1435 46.5826 32.5511 46.296 32.8619 45.9266C33.858 44.7395 35.1062 43.8288 36.2233 42.7754C36.3455 42.6595 36.3901 42.4608 36.4716 42.3003C36.2933 42.2952 36.0844 42.2252 35.943 42.2952C34.8082 42.8544 33.6427 43.3715 32.569 44.0339C30.8456 45.0961 29.1809 46.2514 27.5021 47.3837C27.0308 47.7022 26.9569 47.7009 26.7022 47.2092C26.5965 47.0042 26.4411 46.8259 26.3086 46.6348C26.1341 46.8322 25.8934 47.0029 25.7978 47.2334C25.6195 47.6652 25.5495 48.1416 25.3864 48.581C25.2794 48.8689 25.1508 49.2013 24.9266 49.3848C23.5918 50.4738 22.2302 51.5284 20.8711 52.5856C20.4227 52.9346 19.94 53.2429 19.5018 53.6059C19.1847 53.8683 18.9567 53.7753 18.7733 53.49C18.5733 53.1779 18.4217 52.8353 18.2345 52.5143C18.1746 52.4099 18.0651 52.2545 17.9861 52.2596C17.8638 52.2672 17.6779 52.3678 17.6435 52.4697C17.5199 52.8365 17.418 53.2174 17.3645 53.6008C17.2232 54.6223 16.7404 55.4617 16.0513 56.2017C15.31 56.9978 14.5815 57.8066 13.8351 58.5963C13.2097 59.2574 12.5511 59.8879 11.9308 60.554C10.824 61.745 9.74131 62.9588 8.6319 64.1472C8.48032 64.309 8.23195 64.3803 8.02688 64.4924C7.91861 64.2873 7.75176 64.0924 7.711 63.8746C7.51612 62.834 7.23463 61.7883 7.21297 60.74C7.18495 59.4 7.27666 58.0372 7.50465 56.7176C7.69444 55.6222 8.1033 54.5535 8.51472 53.5129C8.76819 52.8722 9.18087 52.2888 9.5719 51.7119C10.1425 50.8686 10.7093 50.0153 11.3628 49.237C12.7384 47.599 14.3344 46.2005 16.1227 45.0146C17.0983 44.3676 18.0141 43.6288 18.9771 42.9601C19.349 42.7015 19.7757 42.522 20.1795 42.3131C21.4697 41.6444 22.7295 40.8992 24.0643 40.3375C25.0782 39.9108 26.1914 39.721 27.2575 39.4179C27.5199 39.344 27.7721 39.2396 28.0307 39.153C28.1224 39.1224 28.2243 39.0651 28.3084 39.0829C28.9962 39.2294 29.6139 38.967 30.2444 38.7721C30.275 38.7619 30.3068 38.7479 30.3387 38.7466C31.094 38.7339 31.8518 38.7466 32.6059 38.7008C33.1396 38.6689 33.6682 38.5619 34.1993 38.4893V38.213L34.2082 38.2091Z" stroke="#FF0066" stroke-width="0.509489" stroke-miterlimit="10"/>
</g>
<defs>
<clipPath id="clip0_47_205">
<rect width="95.5215" height="119" fill="white"/>
</clipPath>
</defs>
</svg>
